<svg viewBox="0 0 16 15" fill="none" xmlns="http://www.w3.org/2000/svg"><path fill-rule="evenodd" clip-rule="evenodd" d="M15.725 11.887L9.324.801A1.55 1.55 0 007.968.018 1.55 1.55 0 006.613.8l-6.4 11.086a1.549 1.549 0 000 1.565c.282.49.789.783 1.355.783H14.37a1.55 1.55 0 001.355-.783 1.55 1.55 0 000-1.565zm-7.756.544a1.02 1.02 0 010-2.037 1.02 1.02 0 010 2.037zm0-3.329c.565 0 1.025-.46 1.025-1.026V3.37a.486.486 0 00-.486-.486h-1.08a.486.486 0 00-.485.486v4.707c0 .566.46 1.026 1.026 1.026z" fill="#000"/></svg>