<svg viewBox="0 0 12 12" fill="none" xmlns="http://www.w3.org/2000/svg"><path fill-rule="evenodd" clip-rule="evenodd" d="M7.103 8.814c-.305-.302-.686-.3-.988 0-.231.229-.462.458-.691.694-.062.064-.113.076-.192.034-.15-.081-.307-.147-.452-.236-.672-.42-1.232-.964-1.73-1.574a4.033 4.033 0 01-.619-.993c-.032-.074-.027-.123.035-.182.23-.224.457-.453.683-.681.318-.317.315-.691-.002-1.013-.18-.182-.362-.362-.544-.544-.186-.187-.37-.374-.56-.558-.305-.3-.686-.3-.989 0-.23.229-.457.465-.693.688a1.126 1.126 0 00-.354.76c-.037.482.083.94.248 1.385.342.922.863 1.738 1.493 2.488a9.222 9.222 0 003.061 2.395c.536.261 1.092.46 1.697.495.415.022.777-.082 1.067-.406.2-.221.42-.423.632-.637.312-.315.315-.696.005-1.006-.364-.369-.735-.74-1.107-1.109z" fill="#000"/><path fill-rule="evenodd" clip-rule="evenodd" d="M10.873 1.108A3.771 3.771 0 005.38 6.272l.039.032c-.143.307-.389.686-.777.877a.146.146 0 00.042.276c.425.066 1.03-.005 1.598-.433l.012.003a3.773 3.773 0 004.58-5.92zm-2.506.337c.34.002.61.277.608.622a.616.616 0 01-.61.614.619.619 0 01-.615-.624c0-.342.278-.615.617-.612zm.787 4.29a.322.322 0 00.086-.147c.025-.093-.049-.152-.142-.113-.028.011-.055.027-.082.042a.547.547 0 01-.09.046c-.074.027-.15.055-.23.064-.093.01-.159-.041-.184-.132a.613.613 0 01-.02-.212 5.25 5.25 0 01.061-.367l.014-.07c.08-.438.162-.876.24-1.316a1.76 1.76 0 00.04-.357c-.005-.142-.091-.211-.234-.211H7.448c-.047 0-.094 0-.14.01-.089.014-.13.059-.138.125-.008.061.03.123.108.152.05.018.103.025.157.031l.045.006c.157.022.209.08.209.239 0 .024 0 .05-.005.074l-.082.46c-.04.23-.082.46-.12.69-.037.222-.071.443-.1.664-.045.325.267.63.513.664.148.022.298.027.448.025.322-.005.587-.14.811-.366z" fill="#000"/></svg>