<svg viewBox="0 0 14 12" fill="none" xmlns="http://www.w3.org/2000/svg"><path fill-rule="evenodd" clip-rule="evenodd" d="M1.343 3.41c.177.125.71.496 1.6 1.113.89.617 1.572 1.092 2.046 1.425.052.036.162.115.331.238.17.122.31.221.422.297.112.075.247.16.406.253.159.094.308.164.449.21.14.048.27.071.39.071h.016c.12 0 .25-.023.39-.07.14-.047.29-.117.449-.21.159-.095.294-.18.406-.254.112-.076.252-.175.421-.297.17-.123.28-.202.332-.238.48-.333 1.697-1.18 3.654-2.538.38-.265.697-.585.952-.96a2.06 2.06 0 00.383-1.178 1.2 1.2 0 00-.371-.883 1.207 1.207 0 00-.878-.367H1.249c-.4 0-.71.136-.925.406C.108.7 0 1.038 0 1.443c0 .328.143.683.43 1.066.286.382.59.683.913.902z" fill="#000"/><path fill-rule="evenodd" clip-rule="evenodd" d="M13.209 4.246a162.272 162.272 0 00-3.888 2.693c-.296.219-.537.39-.722.511-.185.123-.43.248-.738.375a2.246 2.246 0 01-.858.191h-.016c-.265 0-.552-.063-.859-.19a4.458 4.458 0 01-.737-.375 18.47 18.47 0 01-.722-.512c-.703-.515-1.996-1.413-3.88-2.693A4.135 4.135 0 010 3.566v6.2c0 .343.122.637.367.881a1.2 1.2 0 00.882.367h11.492c.343 0 .637-.122.882-.367a1.2 1.2 0 00.367-.882V3.567c-.224.25-.484.476-.781.679z" fill="#000"/></svg>