<svg viewBox="0 0 5 11" fill="none" xmlns="http://www.w3.org/2000/svg"><path fill-rule="evenodd" clip-rule="evenodd" d="M3.43 4.58h.173c.762 0 1.382.62 1.382 1.381 0 .762-.62 1.382-1.382 1.382H3.43v1.062h.574a.425.425 0 110 .851H3.43v.531a.425.425 0 11-.85 0v-.531h-.072c-.762 0-1.382-.62-1.382-1.382 0-.762.62-1.382 1.382-1.382h.071V5.43h-.29c-.762 0-1.382-.62-1.382-1.382 0-.762.62-1.381 1.382-1.381h.29v-.624a1.028 1.028 0 11.851 0v.624h1.13a.425.425 0 110 .85H3.43V4.58zM2.29 3.516a.532.532 0 000 1.062h.29v-1.06h-.29zm.29 4.888h-.07a.532.532 0 010-1.062h.07v1.062zm.851-1.913h.173a.532.532 0 000-1.062H3.43v1.062z" fill="#000"/></svg>