<svg viewBox="0 0 12 13" fill="none" xmlns="http://www.w3.org/2000/svg"><path fill-rule="evenodd" clip-rule="evenodd" d="M7.847 10.441h-1.74a.211.211 0 00-.156.062.212.212 0 00-.061.156v1.305c0 .064.02.116.06.156a.216.216 0 00.157.062h1.74a.211.211 0 00.217-.218v-1.305a.211.211 0 00-.06-.156.21.21 0 00-.157-.062zm-3.263-.87H3.28V.218A.212.212 0 003.218.06.212.212 0 003.062 0H1.756A.212.212 0 001.6.061a.212.212 0 00-.061.157V9.57H.234c-.1 0-.168.045-.204.136-.037.086-.02.166.047.238l2.176 2.175a.228.228 0 00.313 0l2.168-2.168a.255.255 0 00.068-.163.213.213 0 00-.061-.157.212.212 0 00-.157-.06zm4.568-2.61H6.107a.212.212 0 00-.156.061.212.212 0 00-.061.156v1.306c0 .063.02.115.06.156.041.04.094.061.157.061h3.045c.064 0 .116-.02.157-.061a.211.211 0 00.06-.156V7.178a.211.211 0 00-.06-.156.211.211 0 00-.157-.061zm2.768-6.9A.212.212 0 0011.762 0H6.107a.212.212 0 00-.156.061.212.212 0 00-.061.157v1.305c0 .063.02.115.06.156.042.04.094.061.157.061h5.656c.063 0 .115-.02.156-.061a.212.212 0 00.061-.156V.218a.212.212 0 00-.06-.157zM10.458 3.48H6.107a.212.212 0 00-.156.062.212.212 0 00-.061.156v1.305c0 .064.02.116.06.157.041.04.094.06.157.06h4.35c.064 0 .116-.02.157-.06a.212.212 0 00.061-.157V3.698a.212.212 0 00-.06-.156.213.213 0 00-.157-.061z" fill="#000"/></svg>