<svg viewBox="0 0 12 12" fill="none" xmlns="http://www.w3.org/2000/svg"><path fill-rule="evenodd" clip-rule="evenodd" d="M6.012 5.14h2.997a.208.208 0 00.214-.214V3.639a.208.208 0 00-.06-.154.208.208 0 00-.154-.06H6.012a.208.208 0 00-.154.06.209.209 0 00-.06.154v1.285c0 .063.02.114.06.154.04.04.091.06.154.06zm0-3.427h1.713a.21.21 0 00.154-.06.21.21 0 00.06-.154V.214a.208.208 0 00-.06-.154.208.208 0 00-.154-.06H6.012a.208.208 0 00-.154.06.209.209 0 00-.06.154V1.5c0 .062.02.114.06.154.04.04.091.06.154.06zM4.513 9.422H3.228V.214a.208.208 0 00-.06-.154.209.209 0 00-.154-.06H1.729a.208.208 0 00-.154.06.209.209 0 00-.06.154v9.208H.23c-.098 0-.165.044-.2.133-.036.085-.02.163.046.235l2.141 2.141c.05.04.1.06.154.06.058 0 .11-.02.154-.06L4.66 9.796a.251.251 0 00.067-.16.21.21 0 00-.06-.154.209.209 0 00-.154-.06zm7.22.916a.208.208 0 00-.154-.06H6.012a.208.208 0 00-.154.06.209.209 0 00-.06.154v1.285c0 .063.02.114.06.154.04.04.091.06.154.06h5.567c.063 0 .114-.02.154-.06.04-.04.06-.091.06-.154v-1.285a.208.208 0 00-.06-.154zM6.012 8.565h4.282c.063 0 .114-.02.154-.06.04-.04.06-.091.06-.154V7.066a.209.209 0 00-.06-.154.21.21 0 00-.154-.06H6.012a.209.209 0 00-.154.06.208.208 0 00-.06.154v1.285c0 .063.02.114.06.154.04.04.091.06.154.06z" fill="#000"/></svg>