<svg viewBox="0 0 12 7" fill="none" xmlns="http://www.w3.org/2000/svg"><path fill-rule="evenodd" clip-rule="evenodd" d="M11.782 3.126C11.677 3.002 9.172.102 5.97.102 2.766.102.26 3.002.156 3.126a.643.643 0 000 .837c.105.123 2.61 3.023 5.814 3.023 3.203 0 5.708-2.9 5.813-3.023a.643.643 0 000-.837zM6.947 1.844c.215-.117.516.018.67.301.156.284.107.61-.109.728-.215.117-.515-.018-.67-.302-.155-.284-.107-.61.109-.727zm-5.75 1.7c.65.673 2.534 2.392 4.772 2.392 2.237 0 4.12-1.718 4.772-2.392-.44-.454-1.442-1.385-2.735-1.942a2.437 2.437 0 11-4.074 0C2.638 2.16 1.636 3.09 1.196 3.544z" fill="#000"/></svg>