<svg viewBox="0 0 122 24" fill="none" xmlns="http://www.w3.org/2000/svg"><path fill-rule="evenodd" clip-rule="evenodd" d="M39.39 14.82c.093.16.175.328.245.505s.138.355.205.535c.067-.187.137-.365.21-.535a6.55 6.55 0 01.25-.515L45.15 6c.087-.153.177-.247.27-.28.093-.033.227-.05.4-.05h1.43V20h-1.7V9.47a10.963 10.963 0 01.04-.94l-4.91 8.96c-.167.3-.4.45-.7.45h-.28c-.3 0-.533-.15-.7-.45L33.98 8.5a9.321 9.321 0 01.06.97V20h-1.7V5.67h1.43c.173 0 .307.017.4.05.093.033.183.127.27.28l4.95 8.82zm14.04 8.17a.932.932 0 01-.225.32c-.09.08-.228.12-.415.12h-1.32l1.85-4.02-4.18-9.54h1.54c.153 0 .273.038.36.115a.72.72 0 01.19.255l2.71 6.38c.06.147.112.293.155.44.043.147.082.297.115.45.047-.153.093-.303.14-.45.047-.147.1-.297.16-.45l2.63-6.37a.569.569 0 01.205-.265.526.526 0 01.315-.105h1.42l-5.65 13.12zM73.4 12.84c0 1.073-.17 2.05-.51 2.93-.34.88-.82 1.633-1.44 2.26a6.419 6.419 0 01-2.23 1.455c-.867.343-1.827.515-2.88.515h-5.36V5.67h5.36c1.053 0 2.013.172 2.88.515s1.61.83 2.23 1.46a6.55 6.55 0 011.44 2.265c.34.88.51 1.857.51 2.93zm-1.99 0c0-.88-.12-1.667-.36-2.36-.24-.693-.58-1.28-1.02-1.76a4.35 4.35 0 00-1.6-1.1c-.627-.253-1.323-.38-2.09-.38h-3.41v11.19h3.41c.767 0 1.463-.127 2.09-.38a4.377 4.377 0 001.6-1.095c.44-.477.78-1.062 1.02-1.755.24-.693.36-1.48.36-2.36zm8.45-3.13c.74 0 1.408.123 2.005.37a4.228 4.228 0 011.52 1.05c.417.453.737 1.002.96 1.645.223.643.335 1.362.335 2.155 0 .8-.112 1.52-.335 2.16a4.654 4.654 0 01-.96 1.64 4.174 4.174 0 01-1.52 1.045c-.597.243-1.265.365-2.005.365s-1.408-.122-2.005-.365a4.223 4.223 0 01-1.525-1.045c-.42-.453-.743-1-.97-1.64-.227-.64-.34-1.36-.34-2.16 0-.793.113-1.512.34-2.155.227-.643.55-1.192.97-1.645.42-.453.928-.803 1.525-1.05.597-.247 1.265-.37 2.005-.37zm0 9.04c1 0 1.747-.335 2.24-1.005.493-.67.74-1.605.74-2.805 0-1.207-.247-2.147-.74-2.82s-1.24-1.01-2.24-1.01c-.507 0-.947.087-1.32.26a2.47 2.47 0 00-.935.75c-.25.327-.437.728-.56 1.205a6.461 6.461 0 00-.185 1.615c0 .6.062 1.137.185 1.61.123.473.31.872.56 1.195.25.323.562.572.935.745.373.173.813.26 1.32.26zm13.93-7.08a.793.793 0 01-.16.17.378.378 0 01-.23.06.572.572 0 01-.325-.125 4.735 4.735 0 00-.445-.275 3.69 3.69 0 00-.655-.275 3.091 3.091 0 00-.945-.125c-.493 0-.93.088-1.31.265-.38.177-.698.432-.955.765s-.45.737-.58 1.21a6.003 6.003 0 00-.195 1.59c0 .613.07 1.158.21 1.635.14.477.337.877.59 1.2.253.323.562.57.925.74.363.17.772.255 1.225.255.433 0 .79-.052 1.07-.155.28-.103.513-.218.7-.345a5.21 5.21 0 00.46-.345.554.554 0 01.36-.155c.153 0 .267.057.34.17l.5.65c-.44.54-.99.935-1.65 1.185a5.85 5.85 0 01-2.09.375 4.426 4.426 0 01-1.765-.35 4.025 4.025 0 01-1.415-1.015c-.4-.443-.715-.988-.945-1.635-.23-.647-.345-1.383-.345-2.21 0-.753.105-1.45.315-2.09.21-.64.517-1.192.92-1.655A4.17 4.17 0 0188.89 10.1c.593-.26 1.273-.39 2.04-.39.707 0 1.333.115 1.88.345a4.5 4.5 0 011.45.975l-.47.64zm5.5 8.49c-.8 0-1.415-.223-1.845-.67-.43-.447-.645-1.09-.645-1.93v-6.2h-1.22a.4.4 0 01-.27-.095c-.073-.063-.11-.162-.11-.295v-.71l1.66-.21.41-3.13a.379.379 0 01.13-.245.413.413 0 01.28-.095h.9v3.49h2.9v1.29h-2.9v6.08c0 .427.103.743.31.95.207.207.473.31.8.31.187 0 .348-.025.485-.075a2.07 2.07 0 00.355-.165c.1-.06.185-.115.255-.165a.335.335 0 01.185-.075c.093 0 .177.057.25.17l.52.85a3.322 3.322 0 01-1.11.675c-.433.163-.88.245-1.34.245zm8.49-10.45c.74 0 1.408.123 2.005.37a4.228 4.228 0 011.52 1.05c.417.453.737 1.002.96 1.645.223.643.335 1.362.335 2.155 0 .8-.112 1.52-.335 2.16a4.645 4.645 0 01-.96 1.64 4.175 4.175 0 01-1.52 1.045c-.597.243-1.265.365-2.005.365s-1.408-.122-2.005-.365a4.22 4.22 0 01-1.525-1.045 4.68 4.68 0 01-.97-1.64c-.227-.64-.34-1.36-.34-2.16 0-.793.113-1.512.34-2.155.227-.643.55-1.192.97-1.645.42-.453.928-.803 1.525-1.05.597-.247 1.265-.37 2.005-.37zm0 9.04c1 0 1.747-.335 2.24-1.005.493-.67.74-1.605.74-2.805 0-1.207-.247-2.147-.74-2.82s-1.24-1.01-2.24-1.01c-.507 0-.947.087-1.32.26a2.473 2.473 0 00-.935.75c-.25.327-.437.728-.56 1.205a6.475 6.475 0 00-.185 1.615c0 .6.062 1.137.185 1.61.123.473.31.872.56 1.195.25.323.562.572.935.745.373.173.813.26 1.32.26zM114.8 20V9.87h1.02c.193 0 .327.037.4.11.073.073.123.2.15.38l.12 1.58c.347-.707.775-1.258 1.285-1.655.51-.397 1.108-.595 1.795-.595a2.638 2.638 0 011.39.36l-.23 1.33c-.047.167-.15.25-.31.25-.093 0-.237-.032-.43-.095s-.463-.095-.81-.095c-.62 0-1.138.18-1.555.54-.417.36-.765.883-1.045 1.57V20h-1.78zM6.309 9.686a.81.81 0 01-.408-.11c-.484-.282-4.721-2.83-4.721-5.52a2.98 2.98 0 012.97-2.984c.85 0 1.617.36 2.159.937a2.955 2.955 0 012.159-.937 2.98 2.98 0 012.97 2.984c0 2.69-4.238 5.238-4.72 5.52a.81.81 0 01-.41.11zm-.811-5.63c0-.751-.605-1.363-1.348-1.363-.744 0-1.349.612-1.349 1.363 0 1.22 2.007 2.911 3.508 3.87 1.5-.959 3.507-2.65 3.507-3.87 0-.751-.605-1.363-1.348-1.363-.744 0-1.348.612-1.348 1.363a.81.81 0 01-1.622 0zm18.225 9.597L20.57 10.5c-.626-.626-1.765-1.097-2.65-1.097H9.65a2.03 2.03 0 00-2.027 2.027v.243A2.03 2.03 0 009.65 13.7h2.178l-.432.431c-.295.295-.963.518-1.376.459l-6.957-.994c-.915-.13-2.016.182-2.56.726-.34.339-.484.79-.398 1.237.102.525.502.974 1.1 1.23l7.13 3.055c.78.335 1.99.432 2.813.226l2.992-.748a17.61 17.61 0 002.424-.834l.79-.35c.292-.13.79-.027 1.006.209l2.854 3.117a.809.809 0 001.146.05.81.81 0 00.05-1.146l-2.855-3.116c-.68-.744-1.937-1.006-2.86-.597l-.79.35c-.567.253-1.556.593-2.159.744l-2.991.748c-.48.12-1.328.051-1.782-.143l-7.07-3.03c.248-.098.613-.168.931-.123l6.957.994c.915.131 2.098-.263 2.752-.917l.955-.956c.666-.666.52-1.264.426-1.49-.094-.227-.413-.754-1.355-.754h-2.92a.41.41 0 01-.405-.405v-.244a.41.41 0 01.406-.405h8.27c.453 0 1.183.303 1.503.623l3.154 3.153a.811.811 0 001.146-1.147z" fill="#616161"/></svg>