<svg viewBox="0 0 201 200" fill="none" xmlns="http://www.w3.org/2000/svg"><path opacity=".265" fill-rule="evenodd" clip-rule="evenodd" d="M157.52 184.847c0 3.204-21.993 5.8-49.122 5.8-27.131 0-49.124-2.596-49.124-5.8 0-3.203 21.993-5.799 49.124-5.799 27.129 0 49.122 2.596 49.122 5.799" fill="#D7ECEA"/><mask id="a" maskUnits="userSpaceOnUse" x="22" y="0" width="178" height="167"><path fill-rule="evenodd" clip-rule="evenodd" d="M22.525.545H199.56v166.091H22.525V.546z" fill="#fff"/></mask><g mask="url(#a)"><path opacity=".234" fill-rule="evenodd" clip-rule="evenodd" d="M113.398 166.452c-39.119 2.506-102.66-20.652-78.98-57.95 18.34-28.889 3.38-49.395-6.113-58.117C11.595 35.032 29.043-4.05 108.043.99c72.139 4.602 98.894 52.695 89.809 95.926-8.152 38.786-39.557 66.659-84.454 69.536" fill="#62BDB5"/></g><path fill-rule="evenodd" clip-rule="evenodd" d="M57.187 136.801l4.768 4.768 14.651-14.651-4.768-4.768-14.651 14.651z" fill="#30837C"/><path fill-rule="evenodd" clip-rule="evenodd" d="M0 187.259l11.498 11.497 54.949-54.949-11.499-11.498L0 187.259z" fill="#62BDB5"/><path fill-rule="evenodd" clip-rule="evenodd" d="M51.117 136.141l11.498 11.499 3.832-3.833-11.499-11.498-3.831 3.832zm61.777-.435c-28.05 0-50.791-22.74-50.791-50.791s22.74-50.792 50.791-50.792c28.052 0 50.791 22.74 50.791 50.792 0 28.051-22.739 50.791-50.791 50.791m0-112.983c-34.348 0-62.192 27.845-62.192 62.192s27.844 62.192 62.192 62.192 62.192-27.845 62.192-62.192-27.844-62.192-62.192-62.192" fill="#62BDB5"/><path opacity=".234" fill-rule="evenodd" clip-rule="evenodd" d="M35.252 76.177c2.97-14.556-13-16.417-14.44-7.946-1.892 11.133 11.943 20.164 14.44 7.946M30.957 88.47c-5.91 1.684-2.18 8.011 1.18 6.923 4.416-1.43 3.782-8.336-1.18-6.923" fill="#62BDB5"/><path fill-rule="evenodd" clip-rule="evenodd" d="M89.447 110.831a2.23 2.23 0 002.22 2.241H99.6a2.232 2.232 0 002.222-2.241v-1.16h25.82v1.16a2.23 2.23 0 002.222 2.241h7.928a2.234 2.234 0 002.226-2.241v-1.16c1.506 0 2.726-1.231 2.726-2.75V69.727c0-2.779-2.233-5.03-4.992-5.03h-10.4v-4.594c0-2.78-2.233-5.031-4.992-5.031h-17.49c-2.598 0-4.701 2.122-4.701 4.74v4.885h-9.433c-2.758 0-4.992 2.251-4.992 5.03v36.212c0 2.06 1.657 3.732 3.703 3.732v1.16zm15.299-48.226c0-1.4 1.071-2.533 2.394-2.533h13.21c1.324 0 2.394 1.133 2.394 2.533v2.467h-18l.002-2.467zm.152 20.1a3.152 3.152 0 00-3.154 3.155v1.323a3.155 3.155 0 003.154 3.157h4.478v4.574a3.156 3.156 0 003.154 3.158h1.426a3.157 3.157 0 003.156-3.158V90.34h4.478a3.156 3.156 0 003.154-3.157V85.86a3.155 3.155 0 00-3.154-3.156h-4.478v-4.478a3.155 3.155 0 00-3.156-3.154h-1.426a3.152 3.152 0 00-3.154 3.154v4.478h-4.478z" fill="#62BDB5"/></svg>